<?xml version="1.0" encoding="UTF-8"?>
<svg width="64px" height="64px" viewBox="0 0 64 64" version="1.1" xmlns="http://www.w3.org/2000/svg" xmlns:xlink="http://www.w3.org/1999/xlink">
    <!-- Generator: Sketch 46.2 (44496) - http://www.bohemiancoding.com/sketch -->
    <title>Logo mobile</title>
    <desc>Created with Sketch.</desc>
    <defs>
        <polygon id="path-1" points="0 64 64 64 64 0 0 0"></polygon>
    </defs>
    <g id="Welcome" stroke="none" stroke-width="1" fill="none" fill-rule="evenodd">
        <g id="Mobile" transform="translate(-156.000000, -32.000000)">
            <g id="Intro" transform="translate(-191.000000, -30.000000)">
                <g id="Group-2" transform="translate(249.000000, 62.000000)">
                    <g id="Logo-mobile" transform="translate(98.000000, 0.000000)">
                        <polygon id="Fill-1" fill="#F9F9F9" points="0 64 64 64 64 0 0 0"></polygon>
                        <g id="Group-10">
                            <path d="M30.5483136,40.429248 C30.6116096,40.84448 30.3837696,41.238208 29.8647296,41.611648 L29.0875136,42.171136 C28.3203456,42.731904 27.0950016,43.271168 25.4164096,43.788928 C23.5074176,44.369984 21.7022976,44.701696 20.0034816,44.785216 C16.5197056,44.929472 13.5119616,44.018048 10.9801856,42.04704 C8.0762496,39.786176 6.5520896,36.572096 6.4077696,32.40224 C6.2837376,28.607104 7.6407936,25.403136 10.4839936,22.78912 C13.2005376,20.25984 16.3830016,19.067392 20.0338176,19.211712 C23.0820736,19.31552 25.4670336,19.802816 27.1886336,20.673792 L27.6873856,20.923136 C28.1026176,21.130752 28.5127936,21.425728 28.9153536,21.80928 C29.3204096,22.194112 29.5229696,22.530816 29.5229696,22.820736 L29.5229696,25.994304 C29.5229696,26.263936 29.4242176,26.533568 29.2267776,26.8032 C29.0292736,27.072896 28.7862016,27.218432 28.4950656,27.238656 C27.7911936,27.280448 27.3456256,27.072896 27.1582976,26.615872 L26.7228416,25.589248 C26.4316416,24.905664 26.0493696,24.294272 25.5708416,23.753664 C24.4315136,22.4688 22.7200896,21.814336 20.4389376,21.794112 C18.3856256,21.794112 16.5805056,22.87264 15.0259456,25.029696 C13.5322496,27.103232 12.7853696,29.405888 12.7853696,31.936384 C12.7853696,34.549184 13.4182656,36.810112 14.6841856,38.717824 C16.0715776,40.833152 17.9071616,41.90272 20.1908096,41.923008 C21.8896256,41.943296 23.0922496,41.47744 23.7986176,40.522944 C24.1910016,39.98368 24.3885056,39.3824 24.3885056,38.717824 L24.3885056,35.234048 C24.3885056,34.81888 24.2239616,34.487168 23.8923136,34.237824 C23.6846336,34.072 23.2896896,33.989696 22.7099136,33.989696 L20.7174016,33.989696 C20.3655296,33.989696 20.0642176,33.860544 19.8160896,33.601088 C19.5680256,33.341568 19.4439296,33.0352 19.4439296,32.683328 C19.4439296,32.330112 19.5680256,32.013632 19.8160896,31.733888 C20.0642176,31.454144 20.3351296,31.3136 20.6262656,31.3136 L28.5583616,31.3136 C29.5128576,31.3136 30.1457536,31.51104 30.4571776,31.904768 C30.6420096,32.154112 30.6622336,32.54784 30.5179136,33.087104 L30.4571776,33.833984 C30.2698496,36.073344 30.1761536,37.121472 30.1761536,36.975936 C30.1761536,37.619008 30.2698496,38.562048 30.4571776,39.806464 L30.5483136,40.429248 Z" id="Fill-2" fill="#424242"></path>
                            <path d="M57.5354368,40.429248 C57.5987328,40.84448 57.3708928,41.238208 56.8518528,41.611648 L56.0746368,42.171136 C55.3074688,42.731904 54.0821248,43.271168 52.4035328,43.788928 C50.4945408,44.369984 48.6894208,44.701696 46.9906048,44.785216 C43.5068928,44.929472 40.4991488,44.018048 37.9673088,42.04704 C35.0633728,39.786176 33.5392768,36.572096 33.3949568,32.40224 C33.2708608,28.607104 34.6279168,25.403136 37.4711168,22.78912 C40.1876608,20.25984 43.3701248,19.067392 47.0210048,19.211712 C50.0692608,19.31552 52.4541568,19.802816 54.1758208,20.673792 L54.6745728,20.923136 C55.0897408,21.130752 55.4999168,21.425728 55.9024128,21.80928 C56.3075328,22.194112 56.5100928,22.530816 56.5100928,22.820736 L56.5100928,25.994304 C56.5100928,26.263936 56.4114048,26.533568 56.2139008,26.8032 C56.0163968,27.072896 55.7733248,27.218432 55.4821888,27.238656 C54.7783808,27.280448 54.3327488,27.072896 54.1454208,26.615872 L53.7099648,25.589248 C53.4188288,24.905664 53.0364928,24.294272 52.5580288,23.753664 C51.4187008,22.4688 49.7072128,21.814336 47.4260608,21.794112 C45.3728128,21.794112 43.5676288,22.87264 42.0131328,25.029696 C40.5193728,27.103232 39.7724928,29.405888 39.7724928,31.936384 C39.7724928,34.549184 40.4054528,36.810112 41.6713088,38.717824 C43.0587648,40.833152 44.8942208,41.90272 47.1779328,41.923008 C48.8767488,41.943296 50.0793728,41.47744 50.7857408,40.522944 C51.1781888,39.98368 51.3756288,39.3824 51.3756288,38.717824 L51.3756288,35.234048 C51.3756288,34.81888 51.2110848,34.487168 50.8794368,34.237824 C50.6718208,34.072 50.2768768,33.989696 49.6970368,33.989696 L47.7045888,33.989696 C47.3526528,33.989696 47.0514048,33.860544 46.8032768,33.601088 C46.5551488,33.341568 46.4310528,33.0352 46.4310528,32.683328 C46.4310528,32.330112 46.5551488,32.013632 46.8032768,31.733888 C47.0514048,31.454144 47.3222528,31.3136 47.6134528,31.3136 L55.5454848,31.3136 C56.4999168,31.3136 57.1329408,31.51104 57.4443008,31.904768 C57.6291328,32.154112 57.6493568,32.54784 57.5050368,33.087104 L57.4443008,33.833984 C57.2569088,36.073344 57.1633408,37.121472 57.1633408,36.975936 C57.1633408,37.619008 57.2569088,38.562048 57.4443008,39.806464 L57.5354368,40.429248 Z" id="Fill-4" fill="#424242"></path>
                            <mask id="mask-2" fill="white">
                                <use xlink:href="#path-1"></use>
                            </mask>
                            <g id="Clip-7"></g>
                            <polygon id="Fill-6" fill="#424242" mask="url(#mask-2)" points="0 64 64 64 64 0 0 0"></polygon>
                            <path d="M30.5483136,40.429248 C30.6116096,40.84448 30.3837696,41.238208 29.8647296,41.611648 L29.0875136,42.171136 C28.3203456,42.731904 27.0950016,43.271168 25.4164096,43.788928 C23.5074176,44.369984 21.7022976,44.701696 20.0034816,44.785216 C16.5197056,44.929472 13.5119616,44.018048 10.9801856,42.04704 C8.0762496,39.786176 6.5520896,36.572096 6.4077696,32.40224 C6.2837376,28.607104 7.6407936,25.403136 10.4839936,22.78912 C13.2005376,20.25984 16.3830016,19.067392 20.0338176,19.211712 C23.0820736,19.31552 25.4670336,19.802816 27.1886336,20.673792 L27.6873856,20.923136 C28.1026176,21.130752 28.5127936,21.425728 28.9153536,21.80928 C29.3204096,22.194112 29.5229696,22.530816 29.5229696,22.820736 L29.5229696,25.994304 C29.5229696,26.263936 29.4242176,26.533568 29.2267776,26.8032 C29.0292736,27.072896 28.7862016,27.218432 28.4950656,27.238656 C27.7911936,27.280448 27.3456256,27.072896 27.1582976,26.615872 L26.7228416,25.589248 C26.4316416,24.905664 26.0493696,24.294272 25.5708416,23.753664 C24.4315136,22.4688 22.7200896,21.814336 20.4389376,21.794112 C18.3856256,21.794112 16.5805056,22.87264 15.0259456,25.029696 C13.5322496,27.103232 12.7853696,29.405888 12.7853696,31.936384 C12.7853696,34.549184 13.4182656,36.810112 14.6841856,38.717824 C16.0715776,40.833152 17.9071616,41.90272 20.1908096,41.923008 C21.8896256,41.943296 23.0922496,41.47744 23.7986176,40.522944 C24.1910016,39.98368 24.3885056,39.3824 24.3885056,38.717824 L24.3885056,35.234048 C24.3885056,34.81888 24.2239616,34.487168 23.8923136,34.237824 C23.6846336,34.072 23.2896896,33.989696 22.7099136,33.989696 L20.7174016,33.989696 C20.3655296,33.989696 20.0642176,33.860544 19.8160896,33.601088 C19.5680256,33.341568 19.4439296,33.0352 19.4439296,32.683328 C19.4439296,32.330112 19.5680256,32.013632 19.8160896,31.733888 C20.0642176,31.454144 20.3351296,31.3136 20.6262656,31.3136 L28.5583616,31.3136 C29.5128576,31.3136 30.1457536,31.51104 30.4571776,31.904768 C30.6420096,32.154112 30.6622336,32.54784 30.5179136,33.087104 L30.4571776,33.833984 C30.2698496,36.073344 30.1761536,37.121472 30.1761536,36.975936 C30.1761536,37.619008 30.2698496,38.562048 30.4571776,39.806464 L30.5483136,40.429248 Z" id="Fill-8" fill="#F9F9F9" mask="url(#mask-2)"></path>
                            <path d="M57.5354368,40.429248 C57.5987328,40.84448 57.3708928,41.238208 56.8518528,41.611648 L56.0746368,42.171136 C55.3074688,42.731904 54.0821248,43.271168 52.4035328,43.788928 C50.4945408,44.369984 48.6894208,44.701696 46.9906048,44.785216 C43.5068928,44.929472 40.4991488,44.018048 37.9673088,42.04704 C35.0633728,39.786176 33.5392768,36.572096 33.3949568,32.40224 C33.2708608,28.607104 34.6279168,25.403136 37.4711168,22.78912 C40.1876608,20.25984 43.3701248,19.067392 47.0210048,19.211712 C50.0692608,19.31552 52.4541568,19.802816 54.1758208,20.673792 L54.6745728,20.923136 C55.0897408,21.130752 55.4999168,21.425728 55.9024128,21.80928 C56.3075328,22.194112 56.5100928,22.530816 56.5100928,22.820736 L56.5100928,25.994304 C56.5100928,26.263936 56.4114048,26.533568 56.2139008,26.8032 C56.0163968,27.072896 55.7733248,27.218432 55.4821888,27.238656 C54.7783808,27.280448 54.3327488,27.072896 54.1454208,26.615872 L53.7099648,25.589248 C53.4188288,24.905664 53.0364928,24.294272 52.5580288,23.753664 C51.4187008,22.4688 49.7072128,21.814336 47.4260608,21.794112 C45.3728128,21.794112 43.5676288,22.87264 42.0131328,25.029696 C40.5193728,27.103232 39.7724928,29.405888 39.7724928,31.936384 C39.7724928,34.549184 40.4054528,36.810112 41.6713088,38.717824 C43.0587648,40.833152 44.8942208,41.90272 47.1779328,41.923008 C48.8767488,41.943296 50.0793728,41.47744 50.7857408,40.522944 C51.1781888,39.98368 51.3756288,39.3824 51.3756288,38.717824 L51.3756288,35.234048 C51.3756288,34.81888 51.2110848,34.487168 50.8794368,34.237824 C50.6718208,34.072 50.2768768,33.989696 49.6970368,33.989696 L47.7045888,33.989696 C47.3526528,33.989696 47.0514048,33.860544 46.8032768,33.601088 C46.5551488,33.341568 46.4310528,33.0352 46.4310528,32.683328 C46.4310528,32.330112 46.5551488,32.013632 46.8032768,31.733888 C47.0514048,31.454144 47.3222528,31.3136 47.6134528,31.3136 L55.5454848,31.3136 C56.4999168,31.3136 57.1329408,31.51104 57.4443008,31.904768 C57.6291328,32.154112 57.6493568,32.54784 57.5050368,33.087104 L57.4443008,33.833984 C57.2569088,36.073344 57.1633408,37.121472 57.1633408,36.975936 C57.1633408,37.619008 57.2569088,38.562048 57.4443008,39.806464 L57.5354368,40.429248 Z" id="Fill-9" fill="#F9F9F9" mask="url(#mask-2)"></path>
                        </g>
                    </g>
                </g>
            </g>
        </g>
    </g>
</svg>