<?xml version="1.0" encoding="UTF-8"?>
<svg width="64px" height="64px" viewBox="0 0 64 64" version="1.1" xmlns="http://www.w3.org/2000/svg" xmlns:xlink="http://www.w3.org/1999/xlink">
    <!-- Generator: Sketch 46.2 (44496) - http://www.bohemiancoding.com/sketch -->
    <title>Page 1</title>
    <desc>Created with Sketch.</desc>
    <defs></defs>
    <g id="Welcome" stroke="none" stroke-width="1" fill="none" fill-rule="evenodd">
        <g id="Mobile" transform="translate(-39.000000, -2880.000000)">
            <g id="Footer" transform="translate(0.000000, 2831.000000)">
                <g id="Page-1" transform="translate(39.000000, 49.000000)">
                    <polygon id="Fill-1" fill="#F9F9F9" points="0 64 64 64 64 0 0 0"></polygon>
                    <g id="Group-6" transform="translate(6.400000, 19.200000)" fill="#424242">
                        <path d="M24.1483136,21.229248 C24.2116096,21.64448 23.9837696,22.038208 23.4647296,22.411648 L22.6875136,22.971136 C21.9203456,23.531904 20.6950016,24.071168 19.0164096,24.588928 C17.1074176,25.169984 15.3022976,25.501696 13.6034816,25.585216 C10.1197056,25.729472 7.1119616,24.818048 4.5801856,22.84704 C1.6762496,20.586176 0.1520896,17.372096 0.0077696,13.20224 C-0.1162624,9.407104 1.2407936,6.203136 4.0839936,3.58912 C6.8005376,1.05984 9.9830016,-0.132608 13.6338176,0.011712 C16.6820736,0.11552 19.0670336,0.602816 20.7886336,1.473792 L21.2873856,1.723136 C21.7026176,1.930752 22.1127936,2.225728 22.5153536,2.60928 C22.9204096,2.994112 23.1229696,3.330816 23.1229696,3.620736 L23.1229696,6.794304 C23.1229696,7.063936 23.0242176,7.333568 22.8267776,7.6032 C22.6292736,7.872896 22.3862016,8.018432 22.0950656,8.038656 C21.3911936,8.080448 20.9456256,7.872896 20.7582976,7.415872 L20.3228416,6.389248 C20.0316416,5.705664 19.6493696,5.094272 19.1708416,4.553664 C18.0315136,3.2688 16.3200896,2.614336 14.0389376,2.594112 C11.9856256,2.594112 10.1805056,3.67264 8.6259456,5.829696 C7.1322496,7.903232 6.3853696,10.205888 6.3853696,12.736384 C6.3853696,15.349184 7.0182656,17.610112 8.2841856,19.517824 C9.6715776,21.633152 11.5071616,22.70272 13.7908096,22.723008 C15.4896256,22.743296 16.6922496,22.27744 17.3986176,21.322944 C17.7910016,20.78368 17.9885056,20.1824 17.9885056,19.517824 L17.9885056,16.034048 C17.9885056,15.61888 17.8239616,15.287168 17.4923136,15.037824 C17.2846336,14.872 16.8896896,14.789696 16.3099136,14.789696 L14.3174016,14.789696 C13.9655296,14.789696 13.6642176,14.660544 13.4160896,14.401088 C13.1680256,14.141568 13.0439296,13.8352 13.0439296,13.483328 C13.0439296,13.130112 13.1680256,12.813632 13.4160896,12.533888 C13.6642176,12.254144 13.9351296,12.1136 14.2262656,12.1136 L22.1583616,12.1136 C23.1128576,12.1136 23.7457536,12.31104 24.0571776,12.704768 C24.2420096,12.954112 24.2622336,13.34784 24.1179136,13.887104 L24.0571776,14.633984 C23.8698496,16.873344 23.7761536,17.921472 23.7761536,17.775936 C23.7761536,18.419008 23.8698496,19.362048 24.0571776,20.606464 L24.1483136,21.229248 Z" id="Fill-2"></path>
                        <path d="M51.1354368,21.229248 C51.1987328,21.64448 50.9708928,22.038208 50.4518528,22.411648 L49.6746368,22.971136 C48.9074688,23.531904 47.6821248,24.071168 46.0035328,24.588928 C44.0945408,25.169984 42.2894208,25.501696 40.5906048,25.585216 C37.1068928,25.729472 34.0991488,24.818048 31.5673088,22.84704 C28.6633728,20.586176 27.1392768,17.372096 26.9949568,13.20224 C26.8708608,9.407104 28.2279168,6.203136 31.0711168,3.58912 C33.7876608,1.05984 36.9701248,-0.132608 40.6210048,0.011712 C43.6692608,0.11552 46.0541568,0.602816 47.7758208,1.473792 L48.2745728,1.723136 C48.6897408,1.930752 49.0999168,2.225728 49.5024128,2.60928 C49.9075328,2.994112 50.1100928,3.330816 50.1100928,3.620736 L50.1100928,6.794304 C50.1100928,7.063936 50.0114048,7.333568 49.8139008,7.6032 C49.6163968,7.872896 49.3733248,8.018432 49.0821888,8.038656 C48.3783808,8.080448 47.9327488,7.872896 47.7454208,7.415872 L47.3099648,6.389248 C47.0188288,5.705664 46.6364928,5.094272 46.1580288,4.553664 C45.0187008,3.2688 43.3072128,2.614336 41.0260608,2.594112 C38.9728128,2.594112 37.1676288,3.67264 35.6131328,5.829696 C34.1193728,7.903232 33.3724928,10.205888 33.3724928,12.736384 C33.3724928,15.349184 34.0054528,17.610112 35.2713088,19.517824 C36.6587648,21.633152 38.4942208,22.70272 40.7779328,22.723008 C42.4767488,22.743296 43.6793728,22.27744 44.3857408,21.322944 C44.7781888,20.78368 44.9756288,20.1824 44.9756288,19.517824 L44.9756288,16.034048 C44.9756288,15.61888 44.8110848,15.287168 44.4794368,15.037824 C44.2718208,14.872 43.8768768,14.789696 43.2970368,14.789696 L41.3045888,14.789696 C40.9526528,14.789696 40.6514048,14.660544 40.4032768,14.401088 C40.1551488,14.141568 40.0310528,13.8352 40.0310528,13.483328 C40.0310528,13.130112 40.1551488,12.813632 40.4032768,12.533888 C40.6514048,12.254144 40.9222528,12.1136 41.2134528,12.1136 L49.1454848,12.1136 C50.0999168,12.1136 50.7329408,12.31104 51.0443008,12.704768 C51.2291328,12.954112 51.2493568,13.34784 51.1050368,13.887104 L51.0443008,14.633984 C50.8569088,16.873344 50.7633408,17.921472 50.7633408,17.775936 C50.7633408,18.419008 50.8569088,19.362048 51.0443008,20.606464 L51.1354368,21.229248 Z" id="Fill-4"></path>
                    </g>
                </g>
            </g>
        </g>
    </g>
</svg>