<?xml version="1.0" encoding="UTF-8"?>
<svg width="96px" height="96px" viewBox="0 0 96 96" version="1.1" xmlns="http://www.w3.org/2000/svg" xmlns:xlink="http://www.w3.org/1999/xlink">
    <!-- Generator: Sketch 46.2 (44496) - http://www.bohemiancoding.com/sketch -->
    <title>Page 1</title>
    <desc>Created with Sketch.</desc>
    <defs></defs>
    <g id="Welcome" stroke="none" stroke-width="1" fill="none" fill-rule="evenodd">
        <g id="Desktop" transform="translate(-183.000000, -2895.000000)">
            <g id="Footer" transform="translate(0.000000, 2831.000000)">
                <g id="Page-1" transform="translate(183.000000, 64.000000)">
                    <polygon id="Fill-1" fill="#F9F9F9" points="0 96 96 96 96 0 0 0"></polygon>
                    <g id="Group-50" transform="translate(9.696000, 41.184000)" fill="#424242">
                        <path d="M19.8602784,7.2135936 C20.2944864,6.7894656 20.8130784,6.5771136 21.4155744,6.5771136 C21.9715104,6.5771136 22.4292384,6.8040576 22.7882784,7.2573696 C23.1474144,7.7108736 23.3272224,8.2282176 23.3272224,8.8095936 L19.2085344,8.8095936 C19.2085344,8.1700416 19.4256864,7.6381056 19.8602784,7.2135936 M22.2370464,16.3199616 C23.1482784,16.3199616 23.9472864,16.2502656 24.6337824,16.1116416 C25.3200864,15.9725376 25.8767904,15.8043456 26.3037984,15.6069696 L26.5979424,15.4852416 L26.5979424,12.7032576 L25.8019104,12.7032576 C25.4671584,13.2045696 25.2422304,13.5133056 25.1269344,13.6298496 C24.5845344,14.1544896 23.8983264,14.4163776 23.0676384,14.4163776 C22.0523424,14.4163776 21.1754784,14.1094656 20.4372384,13.4953536 C19.6179744,12.8116416 19.2085344,11.9078976 19.2085344,10.7839296 L19.1739744,10.4362176 L26.3210784,10.4362176 L26.3210784,9.9155136 C26.3210784,8.4920256 25.8884064,7.2884736 25.0231584,6.3048576 C24.1232544,5.2751616 22.9579104,4.7600256 21.5275104,4.7600256 C20.0392224,4.7600256 18.8018784,5.3126976 17.8154784,6.4178496 C16.8290784,7.5230016 16.3359264,8.8682496 16.3359264,10.4533056 C16.3359264,12.1196736 16.9069344,13.5141696 18.0491424,14.6365056 C19.1912544,15.7589376 20.5870944,16.3199616 22.2370464,16.3199616" id="Fill-2"></path>
                        <path d="M10.2966048,8.1517536 L10.4004768,8.1517536 C10.7002848,8.1517536 10.9135968,8.2273056 11.0407008,8.3781216 C11.1213408,8.4593376 11.1732768,8.5463136 11.1965088,8.6391456 C11.2194528,8.7320736 11.2310688,8.8365216 11.2310688,8.9522016 L11.2310688,14.4163296 L10.5734688,14.4163296 C9.7427808,14.4163296 8.8429728,14.2548576 7.8738528,13.9318176 C6.5700768,13.4935776 5.5260768,12.8415456 4.7416608,11.9763936 C3.7378848,10.8688416 3.2360928,9.4730016 3.2360928,7.7884896 C3.2360928,6.1388256 3.7378848,4.7543136 4.7416608,3.6351456 C5.7453408,2.5162656 7.0086048,1.9565856 8.5314528,1.9565856 C9.3734688,1.9565856 10.1176608,2.1672096 10.7638368,2.5881696 C11.4098208,3.0095136 11.7329568,3.4621536 11.7329568,3.9465696 C11.7329568,4.0392096 11.7156768,4.1313696 11.6810208,4.2236256 C11.6464608,4.3159776 11.6001888,4.4024736 11.5425888,4.4831136 L11.2310688,4.9157856 L12.1136928,5.5040736 L14.6056608,2.7526176 L14.2595808,2.4410976 C13.4191968,1.5991776 12.4351968,0.9761376 11.3073888,0.5721696 C10.3406688,0.2260896 9.3048288,0.0530016 8.1999648,0.0530016 C5.7255648,0.0530016 3.6943968,0.8722656 2.1060768,2.5103136 C0.7018848,3.9639456 2.88e-05,5.6079456 2.88e-05,7.4423136 C2.88e-05,10.1882016 1.0496928,12.3803616 3.1495008,14.0183136 C5.1223968,15.5528736 7.6200288,16.3200096 10.6426848,16.3200096 C10.9196448,16.3200096 11.3925408,16.2910176 12.0617568,16.2334176 C12.7306848,16.1756256 13.2672288,16.1468256 13.6711968,16.1468256 L15.0901728,16.0948896 L15.0901728,15.2123616 L14.9690208,15.2123616 C14.8652448,15.2123616 14.7670368,15.1721376 14.6748768,15.0912096 C14.5823328,15.0106656 14.4931488,14.9298336 14.4066528,14.8490016 C14.3201568,14.7684576 14.2738848,14.6066016 14.2682208,14.3644896 C14.2622688,14.1221856 14.2595808,13.8798816 14.2595808,13.6376736 L14.2595808,9.2939616 C14.2595808,9.0632736 14.2682208,8.8817376 14.2855008,8.7488736 C14.3027808,8.6164896 14.3344608,8.5212576 14.3806368,8.4632736 C14.5537248,8.2556256 14.7554208,8.1517536 14.9863968,8.1517536 L15.0901728,8.1517536 L15.0901728,7.2000096 L10.2966048,7.2000096 L10.2966048,8.1517536 Z" id="Fill-4"></path>
                        <path d="M10.2966048,27.35184 L10.4004768,27.35184 C10.7002848,27.35184 10.9135968,27.427392 11.0407008,27.578208 C11.1213408,27.659424 11.1732768,27.746304 11.1965088,27.839232 C11.2194528,27.93216 11.2310688,28.036608 11.2310688,28.152288 L11.2310688,33.616416 L10.5734688,33.616416 C9.7427808,33.616416 8.8429728,33.454944 7.8738528,33.131904 C6.5700768,32.693568 5.5260768,32.041632 4.7416608,31.17648 C3.7378848,30.068832 3.2360928,28.672992 3.2360928,26.988576 C3.2360928,25.338816 3.7378848,23.9544 4.7416608,22.835136 C5.7453408,21.716256 7.0086048,21.156672 8.5314528,21.156672 C9.3734688,21.156672 10.1176608,21.3672 10.7638368,21.788256 C11.4098208,22.209504 11.7329568,22.662144 11.7329568,23.146656 C11.7329568,23.2392 11.7156768,23.331456 11.6810208,23.423616 C11.6464608,23.516064 11.6001888,23.60256 11.5425888,23.6832 L11.2310688,24.115872 L12.1136928,24.70416 L14.6056608,21.952608 L14.2595808,21.641088 C13.4191968,20.799168 12.4351968,20.176224 11.3073888,19.772256 C10.3406688,19.425984 9.3048288,19.252992 8.1999648,19.252992 C5.7255648,19.252992 3.6943968,20.072352 2.1060768,21.710304 C0.7018848,23.164032 2.88e-05,24.808032 2.88e-05,26.642304 C2.88e-05,29.388192 1.0496928,31.580352 3.1495008,33.218304 C5.1223968,34.75296 7.6200288,35.52 10.6426848,35.52 C10.9196448,35.52 11.3925408,35.491008 12.0617568,35.433504 C12.7306848,35.375616 13.2672288,35.346912 13.6711968,35.346912 L15.0901728,35.294976 L15.0901728,34.412448 L14.9690208,34.412448 C14.8652448,34.412448 14.7670368,34.372224 14.6748768,34.291296 C14.5823328,34.210752 14.4931488,34.129824 14.4066528,34.048992 C14.3201568,33.968544 14.2738848,33.806688 14.2682208,33.564576 C14.2622688,33.322272 14.2595808,33.079968 14.2595808,32.83776 L14.2595808,28.494048 C14.2595808,28.26336 14.2682208,28.081824 14.2855008,27.94896 C14.3027808,27.81648 14.3344608,27.721248 14.3806368,27.66336 C14.5537248,27.455712 14.7554208,27.35184 14.9863968,27.35184 L15.0901728,27.35184 L15.0901728,26.400096 L10.2966048,26.400096 L10.2966048,27.35184 Z" id="Fill-6"></path>
                        <path d="M23.8291392,31.8686208 L23.6387712,32.2493568 C23.4771072,32.5723968 23.2060992,32.8666368 22.8253632,33.1318848 C22.3868352,33.4434048 21.9311232,33.5990208 21.4582272,33.5990208 C20.9274432,33.5990208 20.4805632,33.4606848 20.1171072,33.1838208 C19.7537472,32.9068608 19.5720192,32.4916608 19.5720192,31.9378368 C19.5720192,31.3264128 19.8026112,30.8302848 20.2641792,30.4495488 C20.8062912,29.9995968 21.7871232,29.6535168 23.2060992,29.4111168 L23.8291392,29.3074368 L23.8291392,31.8686208 Z M26.8574592,34.3086528 C26.6958912,34.1818368 26.6152512,34.0087488 26.6152512,33.7894848 L26.6152512,27.7672128 C26.6152512,25.2868608 25.0404672,24.0466368 21.8908992,24.0466368 C21.3831552,24.0466368 20.7747072,24.0985728 20.0651712,24.2023488 C19.3556352,24.3062208 18.6488832,24.4619328 17.9452992,24.6696768 L17.4953472,24.8080128 L17.4953472,27.1788288 L18.4671552,27.1788288 L18.6231552,26.9366208 C18.8776512,26.5558848 19.2248832,26.2819968 19.6644672,26.1145728 C20.1041472,25.9474368 20.5205952,25.8636288 20.9139072,25.8636288 C21.8392512,25.8636288 22.5566592,25.9935168 23.0654592,26.2530048 C23.5743552,26.5125888 23.8291392,26.8906368 23.8291392,27.3865728 L23.8291392,27.7152768 L23.0676672,27.8191488 C21.7871232,28.0037568 20.7601152,28.2115008 19.9873152,28.4421888 C18.9373632,28.7537088 18.1297152,29.1690048 17.5645632,29.6881728 C16.9069632,30.2881728 16.5781632,31.0496448 16.5781632,31.9723968 C16.5781632,33.0570048 16.9471872,33.9280128 17.6857152,34.5855168 C18.3892992,35.2085568 19.2891072,35.5199808 20.3853312,35.5199808 C21.7581312,35.5199808 22.8830592,35.1279168 23.7598272,34.3432128 L24.0021312,34.1355648 L24.0021312,35.2258368 L27.3767232,35.2258368 L27.3767232,34.4470848 C27.1920192,34.4816448 27.0190272,34.4356608 26.8574592,34.3086528 L26.8574592,34.3086528 Z" id="Fill-8"></path>
                        <path d="M63.0945024,4.067856 C63.6828864,4.067856 64.1385024,3.886128 64.4616384,3.522672 C64.7844864,3.159312 64.9461504,2.729712 64.9461504,2.233488 C64.9461504,1.725936 64.7903424,1.299024 64.4790144,0.952944 C64.1327424,0.572112 63.6713664,0.38184 63.0945024,0.38184 C62.5061184,0.38184 62.0531904,0.56088 61.7361024,0.918288 C61.4185344,1.27608 61.2601344,1.71432 61.2601344,2.233488 C61.2601344,2.729712 61.4244864,3.159312 61.7532864,3.522672 C62.0821824,3.886128 62.5290624,4.067856 63.0945024,4.067856" id="Fill-10"></path>
                        <path d="M44.2431552,7.2135936 C44.6773632,6.7894656 45.1960512,6.5771136 45.7983552,6.5771136 C46.3542912,6.5771136 46.8123072,6.8040576 47.1712512,7.2573696 C47.5303872,7.7108736 47.7101952,8.2282176 47.7101952,8.8095936 L43.5915072,8.8095936 C43.5915072,8.1700416 43.8086592,7.6381056 44.2431552,7.2135936 M46.6200192,16.3199616 C47.5311552,16.3199616 48.3302592,16.2502656 49.0167552,16.1116416 C49.7029632,15.9725376 50.2597632,15.8043456 50.6865792,15.6069696 L50.9809152,15.4852416 L50.9809152,12.7032576 L50.1847872,12.7032576 C49.8500352,13.2045696 49.6251072,13.5133056 49.5099072,13.6298496 C48.9675072,14.1544896 48.2812032,14.4163776 47.4505152,14.4163776 C46.4352192,14.4163776 45.5583552,14.1094656 44.8202112,13.4953536 C44.0009472,12.8116416 43.5915072,11.9078976 43.5915072,10.7839296 L43.5569472,10.4362176 L50.7039552,10.4362176 L50.7039552,9.9155136 C50.7039552,8.4920256 50.2713792,7.2884736 49.4060352,6.3048576 C48.5062272,5.2751616 47.3407872,4.7600256 45.9103872,4.7600256 C44.4220992,4.7600256 43.1848512,5.3126976 42.1984512,6.4178496 C41.2120512,7.5230016 40.7188032,8.8682496 40.7188032,10.4533056 C40.7188032,12.1196736 41.2899072,13.5141696 42.4320192,14.6365056 C43.5742272,15.7589376 44.9699712,16.3199616 46.6200192,16.3199616" id="Fill-12"></path>
                        <path d="M46.6114656,34.6288128 C46.5250656,34.6001088 46.4498016,34.5509568 46.3865376,34.4818368 C46.3229856,34.4125248 46.2883296,34.3290048 46.2826656,34.2307968 C46.2768096,34.1329728 46.2740256,34.0316928 46.2740256,33.9280128 L46.2740256,33.4953408 L46.2740256,28.2345408 C46.2740256,26.9885568 45.9855456,26.0427648 45.4087776,25.3964928 C44.7971616,24.7158528 43.8626016,24.3753408 42.6053856,24.3753408 C41.8439136,24.3753408 41.0707296,24.5427648 40.2864096,24.8772288 C39.5825376,25.1887488 39.0749856,25.5408768 38.7634656,25.9328448 C38.3019936,25.3908288 37.8231456,24.9956928 37.3271136,24.7474368 C36.8309856,24.4995648 36.2542176,24.3753408 35.5966176,24.3753408 C34.9044576,24.3753408 34.2122016,24.5371968 33.5200416,24.8599488 C32.9084256,25.1369088 32.4297696,25.4599488 32.0836896,25.8291648 L32.0836896,24.6523008 L28.5533856,24.6523008 L28.5533856,25.4484288 C28.7148576,25.4137728 28.9224096,25.5002688 29.1763296,25.7080128 C29.3032416,25.8234048 29.3754336,25.9359168 29.3927136,26.0454528 C29.4099936,26.1551808 29.4186336,26.2616448 29.4186336,26.3655168 L29.4186336,26.6251008 L29.4186336,33.7028928 L29.4186336,34.0491648 C29.4186336,34.2684288 29.3780256,34.4212608 29.2974816,34.5076608 C29.2166496,34.5941568 29.0666016,34.6606848 28.8475296,34.7067648 L28.6745376,34.7413248 L28.6745376,35.5199808 L32.9315616,35.5199808 L32.9315616,34.7398848 L32.7545376,34.7050368 C32.6836896,34.6937088 32.5982496,34.6791168 32.4978336,34.6618368 C32.3975136,34.6445568 32.3151456,34.5982848 32.2501536,34.5230208 C32.1853536,34.4479488 32.1529056,34.2892608 32.1529056,34.0463808 L32.1529056,33.6995328 L32.1529056,27.8045568 L32.4989856,27.3019968 C32.7526176,26.9320128 33.0497376,26.6748288 33.3902496,26.5305408 C33.7303776,26.3861568 34.1370336,26.3135808 34.6102176,26.3135808 C35.1639456,26.3135808 35.6023776,26.5046208 35.9254176,26.8858368 C36.2482656,27.2672448 36.4099296,27.7932288 36.4099296,28.4635968 L36.4099296,33.6995328 L36.4099296,34.0291008 C36.4099296,34.2373248 36.3694176,34.3933248 36.2888736,34.4971968 C36.2080416,34.6012608 36.0695136,34.6705728 35.8734816,34.7050368 L35.7004896,34.7398848 L35.7004896,35.5199808 L40.0268256,35.5199808 L40.0268256,34.7398848 L39.8537376,34.7050368 C39.6459936,34.6705728 39.4990176,34.6012608 39.4125216,34.4971968 C39.3259296,34.3933248 39.2710176,34.2776448 39.2480736,34.1505408 C39.2248416,34.0233408 39.2134176,33.8731008 39.2134176,33.6995328 L39.2134176,27.6486528 L39.6114336,27.1805568 C39.8997216,26.8571328 40.1795616,26.6315328 40.4507616,26.5046208 C40.7216736,26.3775168 41.0764896,26.3135808 41.5150176,26.3135808 C42.1148256,26.3135808 42.5820576,26.4584448 42.9168096,26.7471168 C43.3088736,27.0824448 43.5051936,27.6082368 43.5051936,28.3247808 L43.5051936,33.4743168 C43.5051936,33.8442048 43.4934816,34.0899648 43.4705376,34.2110208 C43.4473056,34.3324608 43.4069856,34.4220288 43.3494816,34.4798208 C43.2338976,34.6186368 43.1185056,34.6937088 43.0033056,34.7050368 L42.8302176,34.7398848 L42.8302176,35.5199808 L47.1218976,35.5199808 L47.1218976,34.7413248 L46.9489056,34.7067648 C46.8104736,34.6836288 46.6979616,34.6578048 46.6114656,34.6288128" id="Fill-14"></path>
                        <path d="M51.9613152,26.4136896 C52.3954272,25.9895616 52.9141152,25.7772096 53.5165152,25.7772096 C54.0724512,25.7772096 54.5302752,26.0040576 54.8894112,26.4574656 C55.2485472,26.9109696 55.4283552,27.4282176 55.4283552,28.0095936 L51.3096672,28.0095936 C51.3096672,27.3701376 51.5268192,26.8382016 51.9613152,26.4136896 M57.2279712,32.8299456 C56.6854752,33.3545856 55.9993632,33.6164736 55.1686752,33.6164736 C54.1533792,33.6164736 53.2764192,33.3095616 52.5382752,32.6953536 C51.7191072,32.0117376 51.3096672,31.1079936 51.3096672,29.9840256 L51.2750112,29.6363136 L58.4221152,29.6363136 L58.4221152,29.1156096 C58.4221152,27.6921216 57.9894432,26.4885696 57.1240992,25.5049536 C56.2242912,24.4752576 55.0588512,23.9601216 53.6283552,23.9601216 C52.1402592,23.9601216 50.9029152,24.5127936 49.9166112,25.6179456 C48.9302112,26.7230016 48.4369632,28.0682496 48.4369632,29.6533056 C48.4369632,31.3197696 49.0079712,32.7142656 50.1501792,33.8365056 C51.2922912,34.9590336 52.6880352,35.5199616 54.3380832,35.5199616 C55.2493152,35.5199616 56.0482272,35.4503616 56.7348192,35.3117376 C57.4210272,35.1725376 57.9777312,35.0044416 58.4047392,34.8070656 L58.6990752,34.6853376 L58.6990752,31.9033536 L57.9029472,31.9033536 C57.5680032,32.4046656 57.3431712,32.7134016 57.2279712,32.8299456" id="Fill-16"></path>
                        <path d="M64.704,15.2642784 C64.634592,15.1838304 64.591488,15.0857184 64.574016,14.9702304 C64.556832,14.8550304 64.548192,14.6992224 64.548192,14.5029024 L64.548192,5.4523104 L60.89664,5.4523104 L60.89664,6.2656224 C60.988896,6.2656224 61.101408,6.2946144 61.234176,6.3521184 C61.366752,6.4100064 61.461888,6.4619424 61.51968,6.5079264 C61.634976,6.6117024 61.727424,6.7184544 61.79664,6.8280864 C61.865856,6.9378144 61.90032,7.0616544 61.90032,7.2000864 L61.90032,14.5029024 C61.90032,14.6759904 61.8888,14.8203744 61.865856,14.9355744 C61.842528,15.0509664 61.790592,15.1548384 61.710048,15.2469984 C61.629216,15.3394464 61.548384,15.4000224 61.46784,15.4288224 C61.386912,15.4577184 61.265856,15.4836384 61.104384,15.5065824 L60.948768,15.5413344 L60.948768,16.3199904 L65.43072,16.3199904 L65.43072,15.5413344 L65.274912,15.5065824 C65.009568,15.4720224 64.819008,15.3913824 64.704,15.2642784" id="Fill-18"></path>
                        <path d="M58.9412832,5.0888448 C58.6410912,5.0888448 58.3010592,5.1283968 57.9203232,5.2070208 C57.5395872,5.2859328 57.1960992,5.4042048 56.8906272,5.5617408 C56.5846752,5.7197568 56.3337312,5.8848768 56.1377952,6.0578688 C55.9414752,6.2309568 55.7455392,6.4619328 55.5495072,6.7502208 L55.5495072,5.4523008 L52.2787872,5.4523008 L52.2787872,6.2484288 C52.3825632,6.2484288 52.4891232,6.2628288 52.5988512,6.2915328 C52.7083872,6.3205248 52.8065952,6.3781248 52.8929952,6.4646208 C52.9794912,6.5511168 53.0341152,6.6463488 53.0574432,6.7502208 C53.0802912,6.8539968 53.0920032,6.9868608 53.0920032,7.1481408 L53.0920032,14.5375488 L53.0920032,14.7624768 C53.0920032,15.0394368 53.0514912,15.2298048 52.9709472,15.3336768 C52.8901152,15.4374528 52.7399712,15.5066688 52.5209952,15.5413248 L52.3651872,15.5757888 L52.3651872,16.3199808 L56.7781152,16.3199808 L56.7781152,15.5757888 L56.6050272,15.5413248 C56.4780192,15.5066688 56.3683872,15.4749888 56.2762272,15.4460928 C56.1837792,15.4174848 56.1088032,15.3655488 56.0512992,15.2903808 C55.9934112,15.2154048 55.9560672,15.1172928 55.9388832,14.9961408 C55.9215072,14.8748928 55.9128672,14.7222528 55.9128672,14.5375488 L55.9128672,8.8440768 C55.9128672,8.4866688 56.1001632,8.1086208 56.4752352,7.7107008 C56.8501152,7.3126848 57.2511072,7.1135808 57.6780192,7.1135808 C57.9548832,7.1135808 58.1971872,7.1930688 58.4047392,7.3519488 C58.6123872,7.5109248 58.7449632,7.6982208 58.8029472,7.9137408 L58.8719712,8.1691968 L59.6854752,8.1691968 L59.6854752,5.1580608 C59.5470432,5.1350208 59.4258912,5.1178368 59.3220192,5.1061248 C59.2181472,5.0947968 59.0912352,5.0888448 58.9412832,5.0888448" id="Fill-20"></path>
                        <path d="M74.900064,13.879872 C74.577792,14.202912 74.083104,14.364384 73.415808,14.364384 C72.472032,14.364384 71.666784,14.052384 70.999488,13.427712 C70.205568,12.688032 69.808608,11.641536 69.808608,10.288704 C69.808608,9.282816 70.038432,8.427072 70.49808,7.721856 C71.015232,6.924192 71.7336,6.52512 72.65328,6.52512 C73.112928,6.52512 73.509312,6.632736 73.84272,6.847776 C74.17584,7.062816 74.342592,7.350336 74.342592,7.710432 C74.342592,7.756992 74.331072,7.850016 74.308032,7.989696 L74.221536,8.373312 L74.965728,8.861376 L76.8,6.550176 L76.592352,6.324192 C76.026912,5.779872 75.323136,5.357088 74.48112,5.05584 C73.788864,4.812384 73.125312,4.690752 72.49104,4.690752 C70.622016,4.690752 69.174048,5.285952 68.147328,6.475872 C67.258848,7.50432 66.814848,8.786688 66.814848,10.32336 C66.814848,12.091104 67.530048,13.546944 68.960736,14.690688 C70.3104,15.777024 71.91408,16.32 73.771584,16.32 C74.140608,16.32 74.54448,16.291008 74.982912,16.233408 C75.421152,16.175616 75.703872,16.12368 75.830784,16.077696 L76.228992,15.921888 L76.228992,13.222176 L75.314208,13.222176 C75.26832,13.291392 75.13008,13.510752 74.900064,13.879872" id="Fill-22"></path>
                        <path d="M32.1529248,15.5413152 L31.9972128,15.5066592 C31.7316768,15.4720032 31.5413088,15.3913632 31.4261088,15.2642592 C31.3682208,15.1951392 31.3366368,15.1145952 31.3308768,15.0221472 C31.3249248,14.9298912 31.3222368,14.8316832 31.3222368,14.7279072 L31.3222368,14.5029792 L31.3222368,8.4633312 L31.7375328,7.9960992 C32.0490528,7.6732512 32.3143008,7.4539872 32.5336608,7.3385952 C32.8565088,7.1655072 33.2604768,7.0790112 33.7449888,7.0790112 C34.4255328,7.0790112 34.9330848,7.2983712 35.2678368,7.7365152 C35.5447968,8.1059232 35.6831328,8.6191392 35.6831328,9.2767392 L35.6831328,14.5029792 C35.6831328,14.5838112 35.6772768,14.7078432 35.6659488,14.8749792 C35.6543328,15.0424032 35.6052768,15.1720992 35.5187808,15.2642592 C35.4322848,15.3568992 35.3773728,15.4144992 35.3544288,15.4374432 C35.3081568,15.4720032 35.2505568,15.4953312 35.1813408,15.5066592 L34.8871008,15.5413152 L34.8871008,16.3199712 L39.3345888,16.3199712 L39.3345888,15.5413152 L39.1788768,15.5066592 C39.0288288,15.4836192 38.9249568,15.4606752 38.8673568,15.4374432 C38.7865248,15.4028832 38.7086688,15.3423072 38.6336928,15.2556192 C38.5585248,15.1692192 38.5183008,15.0596832 38.5126368,14.9269152 C38.5066848,14.7945312 38.5039968,14.6530272 38.5039968,14.5029792 L38.5039968,9.2767392 C38.5039968,7.9960992 38.2154208,6.9868512 37.6387488,6.2484192 C37.0270368,5.4755232 36.1388448,5.0888352 34.9736928,5.0888352 C34.2122208,5.0888352 33.4651488,5.2445472 32.7326688,5.5560672 C31.9999008,5.8674912 31.4836128,6.2080032 31.1838048,6.5771232 L31.1838048,5.4522912 L27.7919328,5.4522912 L27.7919328,6.2484192 C27.8612448,6.2599392 27.9417888,6.2772192 28.0342368,6.3001632 C28.1263968,6.3233952 28.2013728,6.3638112 28.2591648,6.4213152 C28.4090208,6.5597472 28.4955168,6.7069152 28.5188448,6.8626272 C28.5417888,7.0184352 28.5534048,7.2866592 28.5534048,7.6672992 L28.5534048,14.5029792 L28.5534048,14.7279072 C28.5534048,14.9934432 28.5060768,15.1807392 28.4117088,15.2903712 C28.3170528,15.4000032 28.1696928,15.4720032 27.9690528,15.5066592 L27.7919328,15.5413152 L27.7919328,16.3199712 L32.1529248,16.3199712 L32.1529248,15.5413152 Z" id="Fill-24"></path>
                        <path d="M19.8603264,7.2135936 C20.2945344,6.7894656 20.8131264,6.5771136 21.4156224,6.5771136 C21.9715584,6.5771136 22.4292864,6.8040576 22.7883264,7.2573696 C23.1474624,7.7108736 23.3272704,8.2282176 23.3272704,8.8095936 L19.2085824,8.8095936 C19.2085824,8.1700416 19.4257344,7.6381056 19.8603264,7.2135936 M22.2370944,16.3199616 C23.1483264,16.3199616 23.9473344,16.2502656 24.6338304,16.1116416 C25.3201344,15.9725376 25.8768384,15.8043456 26.3038464,15.6069696 L26.5979904,15.4852416 L26.5979904,12.7032576 L25.8019584,12.7032576 C25.4672064,13.2045696 25.2422784,13.5133056 25.1270784,13.6298496 C24.5845824,14.1544896 23.8983744,14.4163776 23.0676864,14.4163776 C22.0523904,14.4163776 21.1755264,14.1094656 20.4372864,13.4953536 C19.6180224,12.8116416 19.2085824,11.9078976 19.2085824,10.7839296 L19.1740224,10.4362176 L26.3211264,10.4362176 L26.3211264,9.9155136 C26.3211264,8.4920256 25.8884544,7.2884736 25.0232064,6.3048576 C24.1233024,5.2751616 22.9579584,4.7600256 21.5275584,4.7600256 C20.0392704,4.7600256 18.8019264,5.3126976 17.8156224,6.4178496 C16.8291264,7.5230016 16.3359744,8.8682496 16.3359744,10.4533056 C16.3359744,12.1196736 16.9070784,13.5141696 18.0491904,14.6365056 C19.1913024,15.7589376 20.5871424,16.3199616 22.2370944,16.3199616" id="Fill-26"></path>
                        <path d="M10.2966528,8.1517536 L10.4005248,8.1517536 C10.7003328,8.1517536 10.9137408,8.2273056 11.0407488,8.3781216 C11.1213888,8.4593376 11.1733248,8.5463136 11.1965568,8.6391456 C11.2195008,8.7320736 11.2311168,8.8365216 11.2311168,8.9522016 L11.2311168,14.4163296 L10.5735168,14.4163296 C9.7428288,14.4163296 8.8430208,14.2548576 7.8739968,13.9318176 C6.5701248,13.4935776 5.5261248,12.8415456 4.7417088,11.9763936 C3.7380288,10.8688416 3.2361408,9.4730016 3.2361408,7.7884896 C3.2361408,6.1388256 3.7380288,4.7543136 4.7417088,3.6351456 C5.7453888,2.5162656 7.0086528,1.9565856 8.5315008,1.9565856 C9.3735168,1.9565856 10.1177088,2.1672096 10.7638848,2.5881696 C11.4098688,3.0095136 11.7330048,3.4621536 11.7330048,3.9465696 C11.7330048,4.0392096 11.7157248,4.1313696 11.6810688,4.2236256 C11.6465088,4.3159776 11.6002368,4.4024736 11.5426368,4.4831136 L11.2311168,4.9157856 L12.1137408,5.5040736 L14.6057088,2.7526176 L14.2596288,2.4410976 C13.4192448,1.5991776 12.4352448,0.9761376 11.3074368,0.5721696 C10.3407168,0.2260896 9.3048768,0.0530016 8.2000128,0.0530016 C5.7256128,0.0530016 3.6944448,0.8722656 2.1061248,2.5103136 C0.7019328,3.9639456 7.68e-05,5.6079456 7.68e-05,7.4423136 C7.68e-05,10.1882016 1.0497408,12.3803616 3.1495488,14.0183136 C5.1224448,15.5528736 7.6200768,16.3200096 10.6427328,16.3200096 C10.9196928,16.3200096 11.3925888,16.2910176 12.0619008,16.2334176 C12.7307328,16.1756256 13.2672768,16.1468256 13.6712448,16.1468256 L15.0902208,16.0948896 L15.0902208,15.2123616 L14.9690688,15.2123616 C14.8652928,15.2123616 14.7670848,15.1721376 14.6749248,15.0912096 C14.5824768,15.0106656 14.4931968,14.9298336 14.4067008,14.8490016 C14.3202048,14.7684576 14.2739328,14.6066016 14.2682688,14.3644896 C14.2623168,14.1221856 14.2596288,13.8798816 14.2596288,13.6376736 L14.2596288,9.2939616 C14.2596288,9.0632736 14.2682688,8.8817376 14.2855488,8.7488736 C14.3028288,8.6164896 14.3345088,8.5212576 14.3807808,8.4632736 C14.5537728,8.2556256 14.7554688,8.1517536 14.9864448,8.1517536 L15.0902208,8.1517536 L15.0902208,7.2000096 L10.2966528,7.2000096 L10.2966528,8.1517536 Z" id="Fill-28"></path>
                        <path d="M10.2966528,27.35184 L10.4005248,27.35184 C10.7003328,27.35184 10.9137408,27.427392 11.0407488,27.578208 C11.1213888,27.659424 11.1733248,27.746304 11.1965568,27.839232 C11.2195008,27.93216 11.2311168,28.036608 11.2311168,28.152288 L11.2311168,33.616416 L10.5735168,33.616416 C9.7428288,33.616416 8.8430208,33.454944 7.8739968,33.131904 C6.5701248,32.693568 5.5261248,32.041632 4.7417088,31.17648 C3.7380288,30.068832 3.2361408,28.672992 3.2361408,26.988576 C3.2361408,25.338816 3.7380288,23.9544 4.7417088,22.835136 C5.7453888,21.716256 7.0086528,21.156672 8.5315008,21.156672 C9.3735168,21.156672 10.1177088,21.3672 10.7638848,21.788256 C11.4098688,22.209504 11.7330048,22.662144 11.7330048,23.146656 C11.7330048,23.2392 11.7157248,23.331456 11.6810688,23.423616 C11.6465088,23.516064 11.6002368,23.60256 11.5426368,23.6832 L11.2311168,24.115872 L12.1137408,24.70416 L14.6057088,21.952608 L14.2596288,21.641088 C13.4192448,20.799168 12.4352448,20.176224 11.3074368,19.772256 C10.3407168,19.425984 9.3048768,19.252992 8.2000128,19.252992 C5.7256128,19.252992 3.6944448,20.072352 2.1061248,21.710304 C0.7019328,23.164032 7.68e-05,24.808032 7.68e-05,26.642304 C7.68e-05,29.388192 1.0497408,31.580352 3.1495488,33.218304 C5.1224448,34.75296 7.6200768,35.52 10.6427328,35.52 C10.9196928,35.52 11.3925888,35.491008 12.0619008,35.433504 C12.7307328,35.375616 13.2672768,35.346912 13.6712448,35.346912 L15.0902208,35.294976 L15.0902208,34.412448 L14.9690688,34.412448 C14.8652928,34.412448 14.7670848,34.372224 14.6749248,34.291296 C14.5824768,34.210752 14.4931968,34.129824 14.4067008,34.048992 C14.3202048,33.968544 14.2739328,33.806688 14.2682688,33.564576 C14.2623168,33.322272 14.2596288,33.079968 14.2596288,32.83776 L14.2596288,28.494048 C14.2596288,28.26336 14.2682688,28.081824 14.2855488,27.94896 C14.3028288,27.81648 14.3345088,27.721248 14.3807808,27.66336 C14.5537728,27.455712 14.7554688,27.35184 14.9864448,27.35184 L15.0902208,27.35184 L15.0902208,26.400096 L10.2966528,26.400096 L10.2966528,27.35184 Z" id="Fill-30"></path>
                        <path d="M23.8291872,31.8686208 L23.6388192,32.2493568 C23.4771552,32.5723968 23.2061472,32.8666368 22.8254112,33.1318848 C22.3868832,33.4434048 21.9311712,33.5990208 21.4583712,33.5990208 C20.9274912,33.5990208 20.4806112,33.4606848 20.1171552,33.1838208 C19.7537952,32.9068608 19.5720672,32.4916608 19.5720672,31.9378368 C19.5720672,31.3264128 19.8026592,30.8302848 20.2642272,30.4495488 C20.8063392,29.9995968 21.7871712,29.6535168 23.2061472,29.4111168 L23.8291872,29.3074368 L23.8291872,31.8686208 Z M26.8575072,34.3086528 C26.6959392,34.1818368 26.6152992,34.0087488 26.6152992,33.7894848 L26.6152992,27.7672128 C26.6152992,25.2868608 25.0405152,24.0466368 21.8909472,24.0466368 C21.3832032,24.0466368 20.7747552,24.0985728 20.0652192,24.2023488 C19.3556832,24.3062208 18.6489312,24.4619328 17.9453472,24.6696768 L17.4953952,24.8080128 L17.4953952,27.1788288 L18.4672032,27.1788288 L18.6232032,26.9366208 C18.8776992,26.5558848 19.2249312,26.2819968 19.6645152,26.1145728 C20.1041952,25.9474368 20.5206432,25.8636288 20.9139552,25.8636288 C21.8392992,25.8636288 22.5567072,25.9935168 23.0655072,26.2530048 C23.5744032,26.5125888 23.8291872,26.8906368 23.8291872,27.3865728 L23.8291872,27.7152768 L23.0677152,27.8191488 C21.7871712,28.0037568 20.7601632,28.2115008 19.9873632,28.4421888 C18.9374112,28.7537088 18.1297632,29.1690048 17.5646112,29.6881728 C16.9071072,30.2881728 16.5782112,31.0496448 16.5782112,31.9723968 C16.5782112,33.0570048 16.9472352,33.9280128 17.6857632,34.5855168 C18.3893472,35.2085568 19.2891552,35.5199808 20.3853792,35.5199808 C21.7581792,35.5199808 22.8831072,35.1279168 23.7598752,34.3432128 L24.0021792,34.1355648 L24.0021792,35.2258368 L27.3767712,35.2258368 L27.3767712,34.4470848 C27.1920672,34.4816448 27.0190752,34.4356608 26.8575072,34.3086528 L26.8575072,34.3086528 Z" id="Fill-32"></path>
                        <path d="M63.0945984,4.067856 C63.6828864,4.067856 64.1385984,3.886128 64.4617344,3.522672 C64.7845824,3.159312 64.9461504,2.729712 64.9461504,2.233488 C64.9461504,1.725936 64.7903424,1.299024 64.4790144,0.952944 C64.1328384,0.572112 63.6713664,0.38184 63.0945984,0.38184 C62.5061184,0.38184 62.0532864,0.56088 61.7361024,0.918288 C61.4186304,1.27608 61.2601344,1.71432 61.2601344,2.233488 C61.2601344,2.729712 61.4245824,3.159312 61.7532864,3.522672 C62.0822784,3.886128 62.5290624,4.067856 63.0945984,4.067856" id="Fill-34"></path>
                        <path d="M44.2432512,7.2135936 C44.6774592,6.7894656 45.1961472,6.5771136 45.7984512,6.5771136 C46.3543872,6.5771136 46.8123072,6.8040576 47.1713472,7.2573696 C47.5303872,7.7108736 47.7101952,8.2282176 47.7101952,8.8095936 L43.5915072,8.8095936 C43.5915072,8.1700416 43.8087552,7.6381056 44.2432512,7.2135936 M46.6201152,16.3199616 C47.5311552,16.3199616 48.3302592,16.2502656 49.0168512,16.1116416 C49.7030592,15.9725376 50.2597632,15.8043456 50.6866752,15.6069696 L50.9809152,15.4852416 L50.9809152,12.7032576 L50.1848832,12.7032576 C49.8500352,13.2045696 49.6251072,13.5133056 49.5100032,13.6298496 C48.9675072,14.1544896 48.2812992,14.4163776 47.4505152,14.4163776 C46.4353152,14.4163776 45.5584512,14.1094656 44.8202112,13.4953536 C44.0009472,12.8116416 43.5915072,11.9078976 43.5915072,10.7839296 L43.5569472,10.4362176 L50.7039552,10.4362176 L50.7039552,9.9155136 C50.7039552,8.4920256 50.2714752,7.2884736 49.4061312,6.3048576 C48.5063232,5.2751616 47.3408832,4.7600256 45.9103872,4.7600256 C44.4221952,4.7600256 43.1848512,5.3126976 42.1984512,6.4178496 C41.2120512,7.5230016 40.7188992,8.8682496 40.7188992,10.4533056 C40.7188992,12.1196736 41.2899072,13.5141696 42.4321152,14.6365056 C43.5742272,15.7589376 44.9699712,16.3199616 46.6201152,16.3199616" id="Fill-36"></path>
                        <path d="M46.6115616,34.6288128 C46.5250656,34.6001088 46.4498016,34.5509568 46.3866336,34.4818368 C46.3229856,34.4125248 46.2884256,34.3290048 46.2827616,34.2307968 C46.2768096,34.1329728 46.2741216,34.0316928 46.2741216,33.9280128 L46.2741216,33.4953408 L46.2741216,28.2345408 C46.2741216,26.9885568 45.9855456,26.0427648 45.4088736,25.3964928 C44.7971616,24.7158528 43.8626016,24.3753408 42.6053856,24.3753408 C41.8439136,24.3753408 41.0708256,24.5427648 40.2864096,24.8772288 C39.5826336,25.1887488 39.0750816,25.5408768 38.7635616,25.9328448 C38.3019936,25.3908288 37.8231456,24.9956928 37.3272096,24.7474368 C36.8310816,24.4995648 36.2543136,24.3753408 35.5967136,24.3753408 C34.9044576,24.3753408 34.2122976,24.5371968 33.5200416,24.8599488 C32.9084256,25.1369088 32.4297696,25.4599488 32.0836896,25.8291648 L32.0836896,24.6523008 L28.5533856,24.6523008 L28.5533856,25.4484288 C28.7148576,25.4137728 28.9225056,25.5002688 29.1764256,25.7080128 C29.3032416,25.8234048 29.3754336,25.9359168 29.3927136,26.0454528 C29.4100896,26.1551808 29.4187296,26.2616448 29.4187296,26.3655168 L29.4187296,26.6251008 L29.4187296,33.7028928 L29.4187296,34.0491648 C29.4187296,34.2684288 29.3781216,34.4212608 29.2975776,34.5076608 C29.2167456,34.5941568 29.0666016,34.6606848 28.8476256,34.7067648 L28.6745376,34.7413248 L28.6745376,35.5199808 L32.9316576,35.5199808 L32.9316576,34.7398848 L32.7545376,34.7050368 C32.6836896,34.6937088 32.5982496,34.6791168 32.4979296,34.6618368 C32.3976096,34.6445568 32.3151456,34.5982848 32.2502496,34.5230208 C32.1853536,34.4479488 32.1529056,34.2892608 32.1529056,34.0463808 L32.1529056,33.6995328 L32.1529056,27.8045568 L32.4990816,27.3019968 C32.7527136,26.9320128 33.0498336,26.6748288 33.3902496,26.5305408 C33.7303776,26.3861568 34.1371296,26.3135808 34.6103136,26.3135808 C35.1640416,26.3135808 35.6023776,26.5046208 35.9255136,26.8858368 C36.2482656,27.2672448 36.4100256,27.7932288 36.4100256,28.4635968 L36.4100256,33.6995328 L36.4100256,34.0291008 C36.4100256,34.2373248 36.3695136,34.3933248 36.2888736,34.4971968 C36.2080416,34.6012608 36.0695136,34.6705728 35.8735776,34.7050368 L35.7004896,34.7398848 L35.7004896,35.5199808 L40.0268256,35.5199808 L40.0268256,34.7398848 L39.8537376,34.7050368 C39.6460896,34.6705728 39.4990176,34.6012608 39.4125216,34.4971968 C39.3259296,34.3933248 39.2711136,34.2776448 39.2481696,34.1505408 C39.2248416,34.0233408 39.2135136,33.8731008 39.2135136,33.6995328 L39.2135136,27.6486528 L39.6115296,27.1805568 C39.8998176,26.8571328 40.1796576,26.6315328 40.4507616,26.5046208 C40.7216736,26.3775168 41.0765856,26.3135808 41.5151136,26.3135808 C42.1148256,26.3135808 42.5820576,26.4584448 42.9169056,26.7471168 C43.3089696,27.0824448 43.5052896,27.6082368 43.5052896,28.3247808 L43.5052896,33.4743168 C43.5052896,33.8442048 43.4935776,34.0899648 43.4705376,34.2110208 C43.4473056,34.3324608 43.4070816,34.4220288 43.3495776,34.4798208 C43.2339936,34.6186368 43.1185056,34.6937088 43.0034016,34.7050368 L42.8303136,34.7398848 L42.8303136,35.5199808 L47.1219936,35.5199808 L47.1219936,34.7413248 L46.9490016,34.7067648 C46.8104736,34.6836288 46.6979616,34.6578048 46.6115616,34.6288128" id="Fill-38"></path>
                        <path d="M51.9614016,26.4136896 C52.3955136,25.9895616 52.9142016,25.7772096 53.5166016,25.7772096 C54.0725376,25.7772096 54.5303616,26.0040576 54.8894016,26.4574656 C55.2485376,26.9109696 55.4283456,27.4282176 55.4283456,28.0095936 L51.3096576,28.0095936 C51.3096576,27.3701376 51.5269056,26.8382016 51.9614016,26.4136896 M57.2279616,32.8299456 C56.6855616,33.3545856 55.9993536,33.6164736 55.1686656,33.6164736 C54.1534656,33.6164736 53.2764096,33.3095616 52.5382656,32.6953536 C51.7190976,32.0117376 51.3096576,31.1079936 51.3096576,29.9840256 L51.2750016,29.6363136 L58.4221056,29.6363136 L58.4221056,29.1156096 C58.4221056,27.6921216 57.9894336,26.4885696 57.1240896,25.5049536 C56.2242816,24.4752576 55.0588416,23.9601216 53.6284416,23.9601216 C52.1402496,23.9601216 50.9030016,24.5127936 49.9166016,25.6179456 C48.9302016,26.7230016 48.4369536,28.0682496 48.4369536,29.6533056 C48.4369536,31.3197696 49.0079616,32.7142656 50.1501696,33.8365056 C51.2923776,34.9590336 52.6881216,35.5199616 54.3380736,35.5199616 C55.2493056,35.5199616 56.0483136,35.4503616 56.7348096,35.3117376 C57.4210176,35.1725376 57.9778176,35.0044416 58.4048256,34.8070656 L58.6990656,34.6853376 L58.6990656,31.9033536 L57.9030336,31.9033536 C57.5680896,32.4046656 57.3432576,32.7134016 57.2279616,32.8299456" id="Fill-40"></path>
                        <path d="M64.704,15.2642784 C64.634688,15.1838304 64.591488,15.0857184 64.574112,14.9702304 C64.556832,14.8550304 64.548192,14.6992224 64.548192,14.5029024 L64.548192,5.4523104 L60.896736,5.4523104 L60.896736,6.2656224 C60.988896,6.2656224 61.101408,6.2946144 61.234176,6.3521184 C61.366752,6.4100064 61.461984,6.4619424 61.51968,6.5079264 C61.634976,6.6117024 61.727424,6.7184544 61.79664,6.8280864 C61.865952,6.9378144 61.900416,7.0616544 61.900416,7.2000864 L61.900416,14.5029024 C61.900416,14.6759904 61.888896,14.8203744 61.865952,14.9355744 C61.842624,15.0509664 61.790688,15.1548384 61.710144,15.2469984 C61.629312,15.3394464 61.548384,15.4000224 61.46784,15.4288224 C61.387008,15.4577184 61.265856,15.4836384 61.10448,15.5065824 L60.948768,15.5413344 L60.948768,16.3199904 L65.43072,16.3199904 L65.43072,15.5413344 L65.274912,15.5065824 C65.009568,15.4720224 64.819008,15.3913824 64.704,15.2642784" id="Fill-42"></path>
                        <path d="M58.9413792,5.0888448 C58.6411872,5.0888448 58.3010592,5.1283968 57.9203232,5.2070208 C57.5395872,5.2859328 57.1960992,5.4042048 56.8906272,5.5617408 C56.5846752,5.7197568 56.3338272,5.8848768 56.1378912,6.0578688 C55.9415712,6.2309568 55.7456352,6.4619328 55.5495072,6.7502208 L55.5495072,5.4523008 L52.2788832,5.4523008 L52.2788832,6.2484288 C52.3826592,6.2484288 52.4891232,6.2628288 52.5988512,6.2915328 C52.7083872,6.3205248 52.8065952,6.3781248 52.8930912,6.4646208 C52.9794912,6.5511168 53.0342112,6.6463488 53.0575392,6.7502208 C53.0803872,6.8539968 53.0920032,6.9868608 53.0920032,7.1481408 L53.0920032,14.5375488 L53.0920032,14.7624768 C53.0920032,15.0394368 53.0514912,15.2298048 52.9709472,15.3336768 C52.8902112,15.4374528 52.7400672,15.5066688 52.5209952,15.5413248 L52.3651872,15.5757888 L52.3651872,16.3199808 L56.7781152,16.3199808 L56.7781152,15.5757888 L56.6050272,15.5413248 C56.4781152,15.5066688 56.3684832,15.4749888 56.2762272,15.4460928 C56.1837792,15.4174848 56.1088992,15.3655488 56.0513952,15.2903808 C55.9935072,15.2154048 55.9560672,15.1172928 55.9388832,14.9961408 C55.9216032,14.8748928 55.9129632,14.7222528 55.9129632,14.5375488 L55.9129632,8.8440768 C55.9129632,8.4866688 56.1002592,8.1086208 56.4753312,7.7107008 C56.8501152,7.3126848 57.2512032,7.1135808 57.6781152,7.1135808 C57.9549792,7.1135808 58.1971872,7.1930688 58.4048352,7.3519488 C58.6124832,7.5109248 58.7450592,7.6982208 58.8029472,7.9137408 L58.8719712,8.1691968 L59.6854752,8.1691968 L59.6854752,5.1580608 C59.5471392,5.1350208 59.4259872,5.1178368 59.3221152,5.1061248 C59.2182432,5.0947968 59.0912352,5.0888448 58.9413792,5.0888448" id="Fill-44"></path>
                        <path d="M74.900064,13.879872 C74.577792,14.202912 74.083104,14.364384 73.415808,14.364384 C72.472032,14.364384 71.666784,14.052384 70.999488,13.427712 C70.205664,12.688032 69.808704,11.641536 69.808704,10.288704 C69.808704,9.282816 70.038432,8.427072 70.498176,7.721856 C71.015232,6.924192 71.733696,6.52512 72.65328,6.52512 C73.113024,6.52512 73.509312,6.632736 73.84272,6.847776 C74.17584,7.062816 74.342688,7.350336 74.342688,7.710432 C74.342688,7.756992 74.331168,7.850016 74.308032,7.989696 L74.221632,8.373312 L74.965728,8.861376 L76.800096,6.550176 L76.592448,6.324192 C76.026912,5.779872 75.323136,5.357088 74.48112,5.05584 C73.78896,4.812384 73.125312,4.690752 72.491136,4.690752 C70.622112,4.690752 69.174048,5.285952 68.147424,6.475872 C67.258848,7.50432 66.814944,8.786688 66.814944,10.32336 C66.814944,12.091104 67.530048,13.546944 68.960736,14.690688 C70.310496,15.777024 71.91408,16.32 73.77168,16.32 C74.140704,16.32 74.54448,16.291008 74.983008,16.233408 C75.421248,16.175616 75.703872,16.12368 75.83088,16.077696 L76.228992,15.921888 L76.228992,13.222176 L75.314304,13.222176 C75.26832,13.291392 75.13008,13.510752 74.900064,13.879872" id="Fill-46"></path>
                        <path d="M32.1529728,15.5413152 L31.9972608,15.5066592 C31.7317248,15.4720032 31.5413568,15.3913632 31.4261568,15.2642592 C31.3682688,15.1951392 31.3366848,15.1145952 31.3309248,15.0221472 C31.3249728,14.9298912 31.3222848,14.8316832 31.3222848,14.7279072 L31.3222848,14.5029792 L31.3222848,8.4633312 L31.7375808,7.9960992 C32.0491008,7.6732512 32.3144448,7.4539872 32.5337088,7.3385952 C32.8565568,7.1655072 33.2605248,7.0790112 33.7450368,7.0790112 C34.4255808,7.0790112 34.9331328,7.2983712 35.2678848,7.7365152 C35.5448448,8.1059232 35.6831808,8.6191392 35.6831808,9.2767392 L35.6831808,14.5029792 C35.6831808,14.5838112 35.6773248,14.7078432 35.6659968,14.8749792 C35.6543808,15.0424032 35.6053248,15.1720992 35.5188288,15.2642592 C35.4323328,15.3568992 35.3774208,15.4144992 35.3544768,15.4374432 C35.3082048,15.4720032 35.2506048,15.4953312 35.1813888,15.5066592 L34.8871488,15.5413152 L34.8871488,16.3199712 L39.3347328,16.3199712 L39.3347328,15.5413152 L39.1790208,15.5066592 C39.0287808,15.4836192 38.9250048,15.4606752 38.8674048,15.4374432 C38.7866688,15.4028832 38.7087168,15.3423072 38.6338368,15.2556192 C38.5586688,15.1692192 38.5183488,15.0596832 38.5126848,14.9269152 C38.5067328,14.7945312 38.5039488,14.6530272 38.5039488,14.5029792 L38.5039488,9.2767392 C38.5039488,7.9960992 38.2154688,6.9868512 37.6387968,6.2484192 C37.0270848,5.4755232 36.1388928,5.0888352 34.9737408,5.0888352 C34.2122688,5.0888352 33.4651968,5.2445472 32.7327168,5.5560672 C31.9999488,5.8674912 31.4836608,6.2080032 31.1838528,6.5771232 L31.1838528,5.4522912 L27.7919808,5.4522912 L27.7919808,6.2484192 C27.8612928,6.2599392 27.9418368,6.2772192 28.0342848,6.3001632 C28.1265408,6.3233952 28.2014208,6.3638112 28.2592128,6.4213152 C28.4090688,6.5597472 28.4955648,6.7069152 28.5188928,6.8626272 C28.5418368,7.0184352 28.5534528,7.2866592 28.5534528,7.6672992 L28.5534528,14.5029792 L28.5534528,14.7279072 C28.5534528,14.9934432 28.5061248,15.1807392 28.4117568,15.2903712 C28.3171008,15.4000032 28.1697408,15.4720032 27.9691008,15.5066592 L27.7919808,15.5413152 L27.7919808,16.3199712 L32.1529728,16.3199712 L32.1529728,15.5413152 Z" id="Fill-48"></path>
                    </g>
                </g>
            </g>
        </g>
    </g>
</svg>