<?xml version="1.0" encoding="UTF-8"?>
<svg width="138px" height="138px" viewBox="0 0 138 138" version="1.1" xmlns="http://www.w3.org/2000/svg" xmlns:xlink="http://www.w3.org/1999/xlink">
    <!-- Generator: Sketch 46.2 (44496) - http://www.bohemiancoding.com/sketch -->
    <title>Page 1</title>
    <desc>Created with Sketch.</desc>
    <defs></defs>
    <g id="Welcome" stroke="none" stroke-width="1" fill="none" fill-rule="evenodd">
        <g id="Website" transform="translate(-227.000000, -128.000000)" fill="#424242">
            <g id="Page-1" transform="translate(227.000000, 128.000000)">
                <path d="M42.9755328,102.596636 C42.3249972,103.128937 42,103.822566 42,104.677389 C42,105.451682 42.2561281,106.032301 42.768249,106.419381 C43.2803698,106.80646 43.9103394,107 44.6584282,107 C45.3249295,107 45.9670763,106.782436 46.5852746,106.34677 C47.1218852,105.976065 47.5037096,105.564558 47.7316947,105.112921 L48,104.580619 L48,101 L47.1218852,101.144953 C45.1219754,101.483715 43.7395873,101.967564 42.9755328,102.596636" id="Fill-1"></path>
                <path d="M46.2148801,69.914126 C45.6918397,69.3049667 45.0248934,69 44.2150199,69 C43.3374589,69 42.5818474,69.285358 41.9494441,69.8552999 C41.3163415,70.4257579 41,71.1405719 41,72 L47,72 C47,71.2187487 46.7380603,70.5235433 46.2148801,69.914126" id="Fill-3"></path>
                <path d="M93.2148801,96.9141653 C92.6916999,96.3048508 92.0247535,96 91.2148801,96 C90.3373191,96 89.5817076,96.2853703 88.9493042,96.8553367 C88.3163415,97.4258192 88,98.140664 88,99 L94,99 C94,98.2187151 93.7380603,97.5236088 93.2148801,96.9141653" id="Fill-5"></path>
                <path d="M81.2148801,69.914126 C80.6919796,69.3049667 80.0247535,69 79.2148801,69 C78.3374589,69 77.5818474,69.285358 76.9493042,69.8552999 C76.3163415,70.4257579 76,71.1405719 76,72 L82,72 C82,71.2187487 81.7380603,70.5235433 81.2148801,69.914126" id="Fill-7"></path>
                <g id="Group-11">
                    <path d="M119.948951,69.1836918 C119.469539,68.8745718 118.899737,68.7198738 118.238993,68.7198738 C116.916953,68.7198738 115.884437,69.2935398 115.141031,70.4401818 C114.480287,71.4539298 114.149915,72.6840618 114.149915,74.1300258 C114.149915,76.0747218 114.720407,77.5790598 115.861805,78.6423498 C116.821043,79.5403158 117.978587,79.9888158 119.335265,79.9888158 C120.294503,79.9888158 121.005479,79.7566998 121.468883,79.2923298 C121.799531,78.7617198 121.998251,78.4465278 122.064215,78.3468918 L123.379079,78.3468918 L123.379079,82.2275898 L122.806793,82.4517018 C122.624357,82.5178038 122.217809,82.5924618 121.587977,82.6755378 C120.957731,82.7583378 120.377165,82.8000138 119.846693,82.8000138 C117.176393,82.8000138 114.871241,82.0194858 112.931099,80.4578778 C110.874485,78.8137458 109.846385,76.7209758 109.846385,74.1798438 C109.846385,71.9708778 110.484635,70.1274738 111.761825,68.6490798 C113.237597,66.9385698 115.319189,66.0829698 118.005911,66.0829698 C118.917539,66.0829698 119.871395,66.2578158 120.866513,66.6077838 C122.077049,67.0408278 123.088727,67.6485798 123.901547,68.4310398 L124.200041,68.7558918 L121.563137,72.0782418 L120.493361,71.3766498 L120.617837,70.8252018 C120.650957,70.6244118 120.667517,70.4906898 120.667517,70.4237598 C120.667517,69.9061218 120.427811,69.4928118 119.948951,69.1836918 L119.948951,69.1836918 Z M107.856701,82.8000138 L101.413895,82.8000138 L101.413895,81.6806958 L101.637593,81.6307398 C101.869571,81.5977578 102.043727,81.5604978 102.160061,81.5189598 C102.275843,81.4776978 102.391901,81.3904818 102.508235,81.2575878 C102.624017,81.1251078 102.698675,80.9757918 102.732071,80.8099158 C102.765053,80.6443158 102.781751,80.4367638 102.781751,80.1879498 L102.781751,69.6902898 C102.781751,69.4911558 102.732071,69.3129978 102.632711,69.1554018 C102.533213,68.9978058 102.400319,68.8443498 102.234581,68.6951718 C102.151367,68.6290698 102.014747,68.5544118 101.824169,68.4711978 C101.633177,68.3885358 101.471441,68.3468598 101.338961,68.3468598 L101.338961,67.1777238 L106.588067,67.1777238 L106.588067,80.1879498 C106.588067,80.4701598 106.600349,80.6941338 106.625189,80.8595958 C106.650305,81.0257478 106.712267,81.1667838 106.812041,81.2825658 C106.977365,81.4651398 107.251157,81.5811978 107.632727,81.6307398 L107.856701,81.6806958 L107.856701,82.8000138 Z M99.5978154,71.0832618 L98.4285414,71.0832618 L98.3291814,70.7160438 C98.2458294,70.4060958 98.0553894,70.1369958 97.7568954,69.9086058 C97.4584014,69.6800778 97.1100894,69.5658138 96.7120974,69.5658138 C96.0984114,69.5658138 95.5219854,69.8520258 94.9830954,70.4240358 C94.4440674,70.9961838 94.1746914,71.5394898 94.1746914,72.0534018 L94.1746914,80.2379058 C94.1746914,80.5031418 94.1871114,80.7226998 94.2120894,80.8969938 C94.2369294,81.0711498 94.2904734,81.2121858 94.3738254,81.3198258 C94.4563494,81.4280178 94.5642654,81.5026758 94.6971594,81.5436618 C94.8296394,81.5853378 94.9870974,81.6307398 95.1696714,81.6806958 L95.4184854,81.7302378 L95.4184854,82.8000138 L89.0749014,82.8000138 L89.0749014,81.7302378 L89.2988754,81.6806958 C89.6137914,81.6307398 89.8294854,81.5313798 89.9456814,81.3822018 C90.0616014,81.2328858 90.1198374,80.9592318 90.1198374,80.5609638 L90.1198374,80.2379058 L90.1198374,69.6156318 C90.1198374,69.3835158 90.1030014,69.1925238 90.0700194,69.0434838 C90.0364854,68.8941678 89.9581014,68.7572718 89.8336254,68.6329338 C89.7094254,68.5085958 89.5683894,68.4256578 89.4107934,68.3841198 C89.2530594,68.3428578 89.0998794,68.3220198 88.9507014,68.3220198 L88.9507014,67.1777238 L93.6523614,67.1777238 L93.6523614,69.0434838 C93.9341574,68.6290698 94.2158154,68.2970418 94.4980254,68.0482278 C94.7796834,67.7995518 95.1405534,67.5621918 95.5802214,67.3350438 C96.0194754,67.1084478 96.5132394,66.9385698 97.0605474,66.8251338 C97.6077174,66.7119738 98.0965134,66.6552558 98.5280394,66.6552558 C98.7435954,66.6552558 98.9260314,66.6638118 99.0753474,66.6800958 C99.2246634,66.6967938 99.3988194,66.7216338 99.5978154,66.7547538 L99.5978154,71.0832618 Z M98.1798654,109.200242 L97.7568954,109.375088 C97.1429334,109.658954 96.3426714,109.900592 95.3562474,110.100554 C94.3694094,110.299826 93.2208354,110.400014 91.9109394,110.400014 C89.5391334,110.400014 87.5327514,109.593542 85.8908274,107.980046 C84.2490414,106.366688 83.4280794,104.362238 83.4280794,101.966696 C83.4280794,99.6881778 84.1371234,97.7542458 85.5552114,96.1657278 C86.9728854,94.5772098 88.7517054,93.7827438 90.8908434,93.7827438 C92.9470434,93.7827438 94.6225014,94.5231138 95.9159754,96.0034398 C97.1597694,97.4173878 97.7817354,99.1474938 97.7817354,101.19362 L97.7817354,101.94227 L87.5077734,101.94227 L87.5575914,102.442106 C87.5575914,104.05781 88.1461614,105.356942 89.3237154,106.339502 C90.3849354,107.222564 91.6454274,107.66375 93.1050534,107.66375 C94.2990294,107.66375 95.2853154,107.287148 96.0652914,106.532978 C96.2307534,106.365584 96.5540874,105.921776 97.0354314,105.201002 L98.1798654,105.201002 L98.1798654,109.200242 Z M81.5377554,110.400014 L75.3684654,110.400014 L75.3684654,109.278764 L75.6172794,109.228532 C75.7828794,109.212248 75.9487554,109.104194 76.1147694,108.904784 C76.1975694,108.82157 76.2555294,108.692954 76.2889254,108.518384 C76.3219074,108.344228 76.3386054,107.991086 76.3386054,107.459234 L76.3386054,100.056914 C76.3386054,99.0268818 76.0563954,98.2709178 75.4928034,97.7890218 C75.0117354,97.3739178 74.3400894,97.1658138 73.4778654,97.1658138 C72.8474814,97.1658138 72.3374334,97.2577218 71.9479974,97.4404338 C71.5581474,97.6228698 71.1558774,97.9471698 70.7414634,98.4120918 L70.1693154,99.0849798 L70.1693154,107.78312 C70.1693154,108.032762 70.1855994,108.248594 70.2191334,108.431306 C70.2521154,108.614156 70.3310514,108.780446 70.4555274,108.929762 C70.5798654,109.079354 70.7911434,109.178852 71.0897754,109.228532 L71.3385894,109.278764 L71.3385894,110.400014 L65.1194814,110.400014 L65.1194814,109.278764 L65.3681574,109.228532 C65.6499534,109.178852 65.8490874,109.079354 65.9651454,108.929762 C66.0810654,108.780446 66.1393014,108.556196 66.1393014,108.256874 L66.1393014,107.78312 L66.1393014,100.256462 C66.1393014,99.2928078 65.9069094,98.5367058 65.4428154,97.9882938 C64.9784454,97.4404338 64.3481994,97.1658138 63.5522154,97.1658138 C62.8720134,97.1658138 62.2874454,97.2700038 61.7985114,97.4775558 C61.3090254,97.6851078 60.8819154,98.0548098 60.5173194,98.5865238 L60.0196914,99.3090918 L60.0196914,107.78312 L60.0196914,108.281576 C60.0196914,108.630854 60.0663354,108.858968 60.1596234,108.966884 C60.2529114,109.074938 60.3714534,109.141592 60.5156634,109.166294 C60.6600114,109.191272 60.7828314,109.212248 60.8846754,109.228532 L61.1391474,109.278764 L61.1391474,110.400014 L55.0196754,110.400014 L55.0196754,109.280696 L55.2683514,109.230878 C55.5832674,109.164776 55.7989614,109.069004 55.9151574,108.944804 C56.0309394,108.820604 56.0893134,108.600908 56.0893134,108.285716 L56.0893134,107.78795 L56.0893134,97.6136238 L56.0893134,97.2404718 C56.0893134,97.0911558 56.0768934,96.9381138 56.0520534,96.7803798 C56.0270754,96.6229218 55.9232994,96.4611858 55.7410014,96.2953098 C55.3759914,95.9966778 55.0774974,95.8723398 54.8453814,95.9221578 L54.8453814,94.7777238 L59.9203314,94.7777238 L59.9203314,96.4694658 C60.4178214,95.9387178 61.1058894,95.4743478 61.9850874,95.0762178 C62.9800674,94.6122618 63.9751854,94.3795938 64.9701654,94.3795938 C65.9154654,94.3795938 66.7445694,94.5581658 67.4577534,94.9144818 C68.1706614,95.2713498 68.8591434,95.8392198 69.5225094,96.6186438 C69.9703194,96.0550518 70.6999254,95.5488678 71.7117414,95.1010578 C72.8392014,94.6202658 73.9506534,94.3795938 75.0451314,94.3795938 C76.8525174,94.3795938 78.1958094,94.8690798 79.0751454,95.8474998 C79.9042494,96.7763778 80.3189394,98.1360918 80.3189394,99.9270558 L80.3189394,107.489594 L80.3189394,108.11156 C80.3189394,108.2606 80.3228034,108.40619 80.3313594,108.546812 C80.3395014,108.687986 80.3893194,108.808184 80.4806754,108.907544 C80.5716174,109.007042 80.6796714,109.077698 80.8040094,109.11896 C80.9283474,109.160498 81.0900834,109.197758 81.2889414,109.230878 L81.5377554,109.280696 L81.5377554,110.400014 Z M53.7509034,81.6806958 L54.0055134,81.6307398 C54.2939334,81.5811978 54.5057634,81.4776978 54.6418314,81.3198258 C54.7774854,81.1623678 54.8455194,80.8931298 54.8455194,80.5114218 L54.8455194,80.1879498 L54.8455194,70.3617978 C54.8455194,69.8144898 54.8288214,69.4289178 54.7958394,69.2049438 C54.7623054,68.9812458 54.6379674,68.7696918 54.4225494,68.5706958 C54.3394734,68.4878958 54.2316954,68.4299358 54.0992154,68.3965398 C53.9663214,68.3635578 53.8505394,68.3385798 53.7509034,68.3220198 L53.7509034,67.1777238 L58.6267194,67.1777238 L58.6267194,68.7946698 C59.0576934,68.2639218 59.7998574,67.7745738 60.8532114,67.3267638 C61.9061514,66.8790918 62.9800674,66.6552558 64.0746834,66.6552558 C65.7494514,66.6552558 67.0263654,67.2111198 67.9057014,68.3220198 C68.7346674,69.3835158 69.1494954,70.8344478 69.1494954,72.6753678 L69.1494954,80.1879498 C69.1494954,80.4037818 69.1533594,80.6070558 69.1619154,80.7973578 C69.1700574,80.9883498 69.2278794,81.1458078 69.3359334,81.2700078 C69.4437114,81.3944838 69.5556294,81.4815618 69.6718254,81.5313798 C69.7546254,81.5647758 69.9038034,81.5977578 70.1196354,81.6307398 L70.3434714,81.6806958 L70.3434714,82.8000138 L63.9502074,82.8000138 L63.9502074,81.6806958 L64.3731774,81.6307398 C64.4726754,81.6144558 64.5554754,81.5811978 64.6219914,81.5313798 C64.6549734,81.4982598 64.7339094,81.4155978 64.8582474,81.2825658 C64.9825854,81.1499478 65.0531034,80.9633718 65.0698014,80.7226998 C65.0860854,80.4825798 65.0945034,80.3042838 65.0945034,80.1879498 L65.0945034,72.6753678 C65.0945034,71.7299298 64.8956454,70.9921818 64.4975154,70.4612958 C64.0163094,69.8313258 63.2867034,69.5159958 62.3084214,69.5159958 C61.6119354,69.5159958 61.0312314,69.6404718 60.5671374,69.8891478 C60.2518074,70.0550238 59.8705134,70.3703538 59.4227034,70.8344478 L58.8257154,71.5060938 L58.8257154,80.1879498 L58.8257154,80.5114218 C58.8257154,80.6605998 58.8295794,80.8016358 58.8381354,80.9342538 C58.8464154,81.0671478 58.8918174,81.1829298 58.9750314,81.2825658 C59.1406314,81.4651398 59.4142854,81.5811978 59.7959934,81.6307398 L60.0198294,81.6806958 L60.0198294,82.8000138 L53.7509034,82.8000138 L53.7509034,81.6806958 Z M53.1540534,109.977044 L48.3030774,109.977044 L48.3030774,108.409916 L47.9547654,108.70841 C46.6942734,109.836422 45.0773274,110.400014 43.1039274,110.400014 C41.5281054,110.400014 40.2346314,109.952342 39.2232294,109.056722 C38.1615954,108.11156 37.6311234,106.859486 37.6311234,105.300362 C37.6311234,103.973906 38.1037734,102.87929 39.0490734,102.01679 C39.8614794,101.270486 41.0224734,100.673498 42.5317794,100.22555 C43.6426794,99.8940738 45.1190034,99.5954418 46.9597854,99.3300678 L48.0544014,99.1807518 L48.0544014,98.7081018 C48.0544014,97.9951938 47.6881494,97.4518878 46.9566114,97.0787358 C46.2252114,96.7057218 45.1939374,96.5190078 43.8637554,96.5190078 C43.2983694,96.5190078 42.6997254,96.6394818 42.0676854,96.8797398 C41.4356454,97.1202738 40.9366374,97.5141258 40.5707994,98.0614338 L40.3465494,98.4096078 L38.9495754,98.4096078 L38.9495754,95.0015598 L39.5963814,94.8027018 C40.6077834,94.5039318 41.6237394,94.2800958 42.6436974,94.1307798 C43.6636554,93.9816018 44.5381614,93.9069438 45.2681814,93.9069438 C49.7956854,93.9069438 52.0594374,95.6899038 52.0594374,99.2554098 L52.0594374,107.912426 C52.0594374,108.227618 52.1753574,108.476294 52.4076114,108.658868 C52.6397274,108.841304 52.8885414,108.907406 53.1540534,108.857726 L53.1540534,109.977044 Z M39.4098054,68.5657278 C40.8277554,66.9770718 42.6064374,66.1826058 44.7457134,66.1826058 C46.8019134,66.1826058 48.4772334,66.9229758 49.7708454,68.4033018 C51.0146394,69.8172498 51.6364674,71.5473558 51.6364674,73.5934818 L51.6364674,74.3421318 L41.3626434,74.3421318 L41.4123234,74.8419678 C41.4123234,76.4576718 42.0008934,77.7568038 43.1784474,78.7395018 C44.2398054,79.6224258 45.5002974,80.0636118 46.9597854,80.0636118 C48.1538994,80.0636118 49.1403234,79.6870098 49.9200234,78.9328398 C50.0856234,78.7654458 50.4089574,78.3216378 50.8903014,77.6008638 L52.0345974,77.6008638 L52.0345974,81.6001038 L51.6116274,81.7749498 C50.9978034,82.0588158 50.1976794,82.3005918 49.2111174,82.5004158 C48.2241414,82.6996878 47.0755674,82.8000138 45.7656714,82.8000138 C43.3938654,82.8000138 41.3874834,81.9934038 39.7455594,80.3800458 C38.1037734,78.7665498 37.2829494,76.7620998 37.2829494,74.3666958 C37.2829494,72.0881778 37.9917174,70.1542458 39.4098054,68.5657278 L39.4098054,68.5657278 Z M35.4921234,71.0581458 L35.3429454,71.0581458 C35.0109174,71.0581458 34.7209794,71.2074618 34.4723034,71.5059558 C34.4057874,71.5893078 34.3602474,71.7262038 34.3354074,71.9165058 C34.3105674,72.1074978 34.2981474,72.3684558 34.2981474,72.7000698 L34.2981474,78.9441558 C34.2981474,79.2923298 34.3020114,79.6406418 34.3105674,79.9889538 C34.3187094,80.3369898 34.3852254,80.5696578 34.5095634,80.6854398 C34.6339014,80.8016358 34.7621034,80.9178318 34.8951354,81.0336138 C35.0276154,81.1499478 35.1687894,81.2079078 35.3179674,81.2079078 L35.4921234,81.2079078 L35.4921234,82.4764038 L33.4523454,82.5510618 C32.8716414,82.5510618 32.1003594,82.5924618 31.1387754,82.6755378 C30.1767774,82.7583378 29.4969894,82.8000138 29.0989974,82.8000138 C24.7537914,82.8000138 21.1634454,81.6972558 18.3274074,79.4913258 C15.3089334,77.1367698 13.8000414,73.9855398 13.8000414,70.0383258 C13.8000414,67.4014218 14.8089594,65.0381718 16.8274854,62.9485758 C19.1106954,60.5938818 22.0304994,59.4161898 25.5874494,59.4161898 C27.1756914,59.4161898 28.6647114,59.6650038 30.0543714,60.1624938 C31.6755954,60.7431978 33.0900954,61.6388178 34.2981474,62.8490778 L34.7956374,63.2968878 L31.2134334,67.2521058 L29.9446614,66.4064418 L30.3924714,65.7844758 C30.4752714,65.6685558 30.5417874,65.5442178 30.5914674,65.4114618 C30.6412854,65.2788438 30.6661254,65.1463638 30.6661254,65.0131938 C30.6661254,64.3168458 30.2016174,63.6661758 29.2730154,63.0606318 C28.3441374,62.4553638 27.2743614,62.1525918 26.0639634,62.1525918 C23.8748694,62.1525918 22.0589274,62.9571318 20.6161374,64.5655218 C19.1732094,66.1743258 18.4518834,68.1645618 18.4518834,70.5359538 C18.4518834,72.9574398 19.1732094,74.9639598 20.6161374,76.5560658 C21.7437354,77.7997218 23.2444854,78.7370178 25.1186634,79.3669878 C26.5117734,79.8313578 27.8052474,80.0634738 28.9993614,80.0634738 L29.9446614,80.0634738 L29.9446614,72.2087898 C29.9446614,72.0424998 29.9279634,71.8923558 29.8949814,71.7587718 C29.8615854,71.6253258 29.7869274,71.5002978 29.6711454,71.3835498 C29.4882954,71.1667518 29.1816594,71.0581458 28.7506854,71.0581458 L28.6013694,71.0581458 L28.6013694,69.6900138 L35.4921234,69.6900138 L35.4921234,71.0581458 Z M35.4921234,98.6582838 L35.3429454,98.6582838 C35.0109174,98.6582838 34.7209794,98.8075998 34.4723034,99.1060938 C34.4057874,99.1893078 34.3602474,99.3262038 34.3354074,99.5166438 C34.3105674,99.7074978 34.2981474,99.9685938 34.2981474,100.300208 L34.2981474,106.544294 C34.2981474,106.892468 34.3020114,107.24078 34.3105674,107.589092 C34.3187094,107.937128 34.3852254,108.169796 34.5095634,108.285578 C34.6339014,108.401636 34.7621034,108.51797 34.8951354,108.633752 C35.0276154,108.750086 35.1687894,108.807908 35.3179674,108.807908 L35.4921234,108.807908 L35.4921234,110.076542 L33.4523454,110.1512 C32.8716414,110.1512 32.1003594,110.192462 31.1387754,110.275676 C30.1767774,110.358476 29.4969894,110.400014 29.0989974,110.400014 C24.7537914,110.400014 21.1634454,109.297394 18.3274074,107.091464 C15.3089334,104.73677 13.8000414,101.58554 13.8000414,97.6383258 C13.8000414,95.0015598 14.8089594,92.6383098 16.8274854,90.5485758 C19.1106954,88.1940198 22.0304994,87.0161898 25.5874494,87.0161898 C27.1756914,87.0161898 28.6647114,87.2648658 30.0543714,87.7626318 C31.6755954,88.3433358 33.0900954,89.2388178 34.2981474,90.4490778 L34.7956374,90.8968878 L31.2134334,94.8522438 L29.9446614,94.0065798 L30.3924714,93.3846138 C30.4752714,93.2686938 30.5417874,93.1443558 30.5914674,93.0114618 C30.6412854,92.8789818 30.6661254,92.7463638 30.6661254,92.6133318 C30.6661254,91.9168458 30.2016174,91.2661758 29.2730154,90.6606318 C28.3441374,90.0553638 27.2743614,89.7527298 26.0639634,89.7527298 C23.8748694,89.7527298 22.0589274,90.5571318 20.6161374,92.1655218 C19.1732094,93.7744638 18.4518834,95.7645618 18.4518834,98.1360918 C18.4518834,100.557578 19.1732094,102.56396 20.6161374,104.156204 C21.7437354,105.39986 23.2444854,106.337018 25.1186634,106.967126 C26.5117734,107.431496 27.8052474,107.663612 28.9993614,107.663612 L29.9446614,107.663612 L29.9446614,99.8089278 C29.9446614,99.6426378 29.9279634,99.4924938 29.8949814,99.3589098 C29.8615854,99.2254638 29.7869274,99.1004358 29.6711454,98.9836878 C29.4882954,98.7668898 29.1816594,98.6582838 28.7506854,98.6582838 L28.6013694,98.6582838 L28.6013694,97.2901518 L35.4921234,97.2901518 L35.4921234,98.6582838 Z M74.4602874,68.5657278 C75.8780994,66.9770718 77.6567814,66.1826058 79.7961954,66.1826058 C81.8523954,66.1826058 83.5277154,66.9229758 84.8211894,68.4033018 C86.0651214,69.8172498 86.6869494,71.5473558 86.6869494,73.5934818 L86.6869494,74.3421318 L76.4129874,74.3421318 L76.4628054,74.8419678 C76.4628054,76.4576718 77.0512374,77.7568038 78.2290674,78.7395018 C79.2901494,79.6224258 80.5506414,80.0636118 82.0101294,80.0636118 C83.2042434,80.0636118 84.1908054,79.6870098 84.9705054,78.9328398 C85.1359674,78.7654458 85.4594394,78.3216378 85.9406454,77.6008638 L87.0849414,77.6008638 L87.0849414,81.6001038 L86.6619714,81.7749498 C86.0484234,82.0588158 85.2480234,82.3005918 84.2615994,82.5004158 C83.2747614,82.6996878 82.1260494,82.8000138 80.8162914,82.8000138 C78.4443474,82.8000138 76.4379654,81.9934038 74.7960414,80.3800458 C73.1542554,78.7665498 72.3332934,76.7620998 72.3332934,74.3666958 C72.3332934,72.0881778 73.0423374,70.1542458 74.4602874,68.5657278 L74.4602874,68.5657278 Z M102.545633,60.6599838 C103.001447,60.1462098 103.652531,59.8888398 104.498333,59.8888398 C105.327575,59.8888398 105.990803,60.1624938 106.488569,60.7099398 C106.936103,61.2074298 107.160077,61.8211158 107.160077,62.5507218 C107.160077,63.2639058 106.927685,63.8815938 106.463591,64.4039238 C105.999083,64.9263918 105.344135,65.1874878 104.498333,65.1874878 C103.685513,65.1874878 103.043123,64.9263918 102.570335,64.4039238 C102.097823,63.8815938 101.861429,63.2639058 101.861429,62.5507218 C101.861429,61.8044178 102.089129,61.1743098 102.545633,60.6599838 L102.545633,60.6599838 Z M4.14e-05,138.000014 L138.000041,138.000014 L138.000041,1.38e-05 L4.14e-05,1.38e-05 L4.14e-05,138.000014 Z" id="Fill-9"></path>
                </g>
            </g>
        </g>
    </g>
</svg>